<?xml version="1.0" encoding="UTF-8" standalone="no"?>
<!DOCTYPE svg PUBLIC "-//W3C//DTD SVG 1.1//EN" "http://www.w3.org/Graphics/SVG/1.1/DTD/svg11.dtd">
<svg width="100%" height="100%" viewBox="0 0 4500 4500" version="1.1" xmlns="http://www.w3.org/2000/svg" xmlns:xlink="http://www.w3.org/1999/xlink" xml:space="preserve" xmlns:serif="http://www.serif.com/" style="fill-rule:evenodd;clip-rule:evenodd;stroke-linejoin:round;stroke-miterlimit:2;">
    <g transform="matrix(1,0,0,1,-15243.292085,-15044.595211)">
        <g id="Página-13" serif:id="Página 13" transform="matrix(4.166667,0,0,4.166667,15243.292085,15044.595211)">
            <rect x="0" y="0" width="1080" height="1080" style="fill:none;"/>
            <g id="Camada-1" serif:id="Camada 1">
            </g>
            <g transform="matrix(0.272811,0,0,0.32604,-4232.367561,-5106.786503)">
                <path d="M19171.208,17990.732L19171.208,18568.893C19171.208,18738.11 19007.02,18875.493 18804.787,18875.493L16181.797,18875.493C15979.564,18875.493 15815.376,18738.11 15815.376,18568.893L15815.376,17990.732C15815.376,17821.515 15979.564,17684.132 16181.797,17684.132L18804.787,17684.132C19007.02,17684.132 19171.208,17821.515 19171.208,17990.732Z" style="fill:white;"/>
            </g>
            <g transform="matrix(0.812143,0,0,0.773573,101.44253,215.654643)">
                <g transform="matrix(0.629051,0,0,0.629051,217.145017,484.415037)">
                    <g transform="matrix(1.5943,0,0,1.5943,409.378197,328.589956)">
                        <path d="M0,281.169C-21.254,270.447 -37.253,254.355 -47.974,232.89C-58.706,211.437 -64.067,184.518 -64.067,152.123L-64.067,-16.093L22.166,-16.093L22.166,152.123C22.166,169.942 24.596,184.006 29.453,194.329C34.312,204.652 40.887,211.94 49.19,216.191C57.483,220.442 67.503,222.567 79.25,222.567C97.06,222.567 110.828,217.31 120.545,206.778C130.261,196.255 135.12,178.037 135.12,152.123L135.727,93.828L221.961,93.828L221.961,152.123C221.961,200.705 210.014,237.047 186.131,261.13C162.238,285.221 126.618,297.262 79.25,297.262C47.672,297.262 21.255,291.892 0,281.169" style="fill:rgb(0,57,211);fill-rule:nonzero;"/>
                    </g>
                    <g transform="matrix(1.5943,0,0,1.5943,636.167384,296.007792)">
                        <path d="M0,63.314C-8.332,55.572 -12.49,44.726 -12.49,30.785C-12.49,17.625 -8.332,7.26 0,-0.291C8.322,-7.842 20.421,-11.618 36.304,-11.618C52.569,-11.618 64.857,-7.842 73.19,-0.291C81.512,7.26 85.678,17.625 85.678,30.785C85.678,44.726 81.612,55.572 73.48,63.314C65.347,71.065 53.15,74.932 36.885,74.932C20.621,74.932 8.322,71.065 0,63.314" style="fill:rgb(0,57,211);fill-rule:nonzero;"/>
                    </g>
                    <g transform="matrix(1.5943,0,0,1.5943,695.698549,753.475141)">
                        <path d="M0,-189.395C-17.72,-189.395 -32.332,-192.427 -43.863,-198.466L-43.863,-44.045L-26.575,-30.445L-9.494,-20.072L42.371,-117.643L42.371,-197.791C31.186,-192.192 17.064,-189.395 0,-189.395" style="fill:rgb(0,57,211);fill-rule:nonzero;"/>
                    </g>
                </g>
                <g transform="matrix(0.324122,0,0,0.324122,-4996.735931,-3270.85002)">
                    <path d="M16306.305,12577.021L15934.26,12577.021L15933.743,12173.037L15669.327,12173.037L15669.327,13141.303L15933.743,13141.303L15934.26,12764.027L16306.305,12764.027L16305.617,13141.303L16570.725,13141.303L16570.725,12171.723L16305.617,12173.037L16306.305,12577.021Z" style="fill:rgb(0,57,211);fill-rule:nonzero;"/>
                </g>
                <g transform="matrix(0.324122,0,0,0.324122,-4345.772169,-3270.865218)">
                    <path d="M16295.934,12603.224C16401.06,12572.793 16441.174,12503.631 16441.174,12410.954C16441.174,12275.397 16341.581,12173.037 16111.964,12173.037L15669.327,12173.037L15669.327,13141.303L16170.06,13141.303C16378.929,13141.303 16486.821,13023.728 16486.821,12857.74C16486.821,12727.715 16425.959,12639.188 16295.934,12603.224ZM16092.598,12337.642C16206.024,12337.642 16241.988,12386.056 16241.988,12445.535C16241.988,12510.547 16206.024,12557.577 16088.449,12557.577L15865.747,12557.577L15865.747,12337.642L16092.598,12337.642ZM15865.747,12975.315L15865.747,12706.967L16106.431,12706.967C16233.689,12706.967 16286.252,12756.763 16286.252,12841.141C16286.252,12925.518 16233.689,12975.315 16111.964,12975.315L15865.747,12975.315Z" style="fill:rgb(0,57,211);fill-rule:nonzero;"/>
                </g>
            </g>
            <g transform="matrix(1.295159,0,0,1.295159,-122.469435,-171.614753)">
                <g transform="matrix(1,0,0,1,201.602915,283.610923)">
                    <path d="M0,281.169C-21.254,270.447 -37.253,254.355 -47.974,232.89C-58.706,211.437 -64.067,184.518 -64.067,152.123L-64.067,-16.093L22.166,-16.093L22.166,152.123C22.166,169.942 24.596,184.006 29.453,194.329C34.312,204.652 40.887,211.94 49.19,216.191C57.483,220.442 67.503,222.567 79.25,222.567C97.06,222.567 110.828,217.31 120.545,206.778C130.261,196.255 135.12,178.037 135.12,152.123L135.12,-16.093L221.961,-16.093L221.961,152.123C221.961,200.705 210.014,237.047 186.131,261.13C162.238,285.221 126.618,297.262 79.25,297.262C47.672,297.262 21.255,291.892 0,281.169" style="fill:white;fill-rule:nonzero;"/>
                </g>
                <g transform="matrix(1,0,0,1,679.853615,269.298123)">
                    <path d="M0,300.263C-8.091,296.363 -15.165,290.947 -21.231,284.015L-22.097,282.715L-137.783,134.144L-137.783,301.779L-220.107,301.779L-220.107,43.544C-220.107,27.371 -215.99,15.097 -207.758,6.715C-199.526,-1.659 -189.059,-5.849 -176.346,-5.849C-168.838,-5.849 -161.762,-4.042 -155.114,-0.434C-148.473,3.182 -142.265,8.597 -136.484,15.814L-12.566,174.97L-12.566,-1.517L69.758,-1.517L69.758,258.451C69.758,273.474 65.493,285.172 56.976,293.547C48.453,301.921 37.546,306.112 24.264,306.112C16.173,306.112 8.083,304.162 0,300.263" style="fill:white;fill-rule:nonzero;"/>
                </g>
                <g transform="matrix(1,0,0,1,837.855415,562.005723)">
                    <path d="M0,-189.395C-17.72,-189.395 -32.332,-192.427 -43.863,-198.466L-43.863,9.071L42.371,9.071L42.371,-197.791C31.186,-192.192 17.064,-189.395 0,-189.395" style="fill:white;fill-rule:nonzero;"/>
                </g>
                <g transform="matrix(1,0,0,1,800.818715,275.066423)">
                    <path d="M0,63.314C-8.332,55.572 -12.49,44.726 -12.49,30.785C-12.49,17.625 -8.332,7.26 0,-0.291C8.322,-7.842 20.421,-11.618 36.304,-11.618C52.569,-11.618 64.857,-7.842 73.19,-0.291C81.512,7.26 85.678,17.625 85.678,30.785C85.678,44.726 81.612,55.572 73.48,63.314C65.347,71.065 53.15,74.932 36.885,74.932C20.621,74.932 8.322,71.065 0,63.314" style="fill:white;fill-rule:nonzero;"/>
                </g>
                <g transform="matrix(1,0,0,1,181.998515,189.488423)">
                    <path d="M0,34.421C-3.33,36.873 -7.478,38.099 -12.442,38.099C-16.439,38.099 -19.935,37.282 -22.933,35.647C-25.929,34.012 -28.245,31.637 -29.88,28.518C-31.515,25.4 -32.333,21.661 -32.333,17.301C-32.333,12.942 -31.515,9.189 -29.88,6.04C-28.245,2.892 -25.929,0.485 -22.933,-1.181C-19.935,-2.846 -16.439,-3.678 -12.442,-3.678C-7.478,-3.678 -3.346,-2.453 -0.046,-0.001C3.254,2.452 5.479,5.948 6.63,10.49L20.071,10.49C19.164,5.283 17.27,0.726 14.395,-3.179C11.519,-7.084 7.795,-10.112 3.224,-12.261C-1.348,-14.409 -6.571,-15.485 -12.442,-15.485C-19.043,-15.485 -24.839,-14.107 -29.835,-11.353C-34.83,-8.597 -38.69,-4.753 -41.414,0.182C-44.139,5.117 -45.502,10.762 -45.502,17.12C-45.502,23.538 -44.139,29.215 -41.414,34.149C-38.69,39.084 -34.83,42.944 -29.835,45.728C-24.839,48.514 -19.043,49.906 -12.442,49.906C-6.571,49.906 -1.348,48.832 3.224,46.682C7.795,44.533 11.519,41.52 14.395,37.646C17.27,33.771 19.193,29.26 20.163,24.113L6.63,24.113C5.54,28.533 3.329,31.969 0,34.421" style="fill:white;fill-rule:nonzero;"/>
                </g>
                <g transform="matrix(1,0,0,1,262.827715,195.346423)">
                    <path d="M0,22.705C-1.575,25.854 -3.814,28.231 -6.721,29.834C-9.626,31.44 -13.139,32.241 -17.255,32.241C-21.313,32.241 -24.839,31.424 -27.837,29.789C-30.833,28.154 -33.135,25.779 -34.739,22.66C-36.344,19.542 -37.146,15.803 -37.146,11.443C-37.146,7.084 -36.344,3.315 -34.739,0.136C-33.135,-3.043 -30.833,-5.45 -27.837,-7.084C-24.839,-8.719 -21.313,-9.536 -17.255,-9.536C-13.139,-9.536 -9.626,-8.719 -6.721,-7.084C-3.814,-5.45 -1.575,-3.043 0,0.136C1.574,3.315 2.362,7.084 2.362,11.443C2.362,15.803 1.574,19.558 0,22.705M0.137,-17.211C-4.799,-19.965 -10.596,-21.343 -17.255,-21.343C-23.856,-21.343 -29.653,-19.965 -34.648,-17.211C-39.644,-14.455 -43.503,-10.611 -46.228,-5.676C-48.953,-0.741 -50.315,4.904 -50.315,11.262C-50.315,17.68 -48.953,23.357 -46.228,28.291C-43.503,33.226 -39.644,37.086 -34.648,39.87C-29.653,42.656 -23.856,44.048 -17.255,44.048C-10.596,44.048 -4.799,42.672 0.137,39.916C5.07,37.161 8.87,33.301 11.535,28.336C14.198,23.372 15.531,17.68 15.531,11.262C15.531,4.904 14.198,-0.741 11.535,-5.676C8.87,-10.611 5.07,-14.455 0.137,-17.211" style="fill:white;fill-rule:nonzero;"/>
                </g>
                <g transform="matrix(1,0,0,1,338.391515,194.647223)">
                    <path d="M0,24.104L-31.515,-16.739C-32.546,-18.01 -33.604,-18.964 -34.694,-19.6C-35.784,-20.235 -36.905,-20.553 -38.054,-20.553C-40.113,-20.553 -41.793,-19.886 -43.095,-18.555C-44.397,-17.223 -45.048,-15.285 -45.048,-12.743L-45.048,43.839L-32.151,43.839L-32.151,1.655L-2.27,40.479L-2.089,40.66C-1.06,41.932 0.121,42.916 1.453,43.612C2.784,44.307 4.146,44.657 5.54,44.657C7.72,44.657 9.491,43.976 10.853,42.613C12.216,41.251 12.897,39.359 12.897,36.937L12.897,-19.735L0,-19.735L0,24.104Z" style="fill:white;fill-rule:nonzero;"/>
                </g>
                <g transform="matrix(1,0,0,1,408.186415,209.106023)">
                    <path d="M0,-4.814C-3.119,-6.115 -7.402,-7.432 -12.851,-8.765C-13.214,-8.885 -13.609,-8.976 -14.032,-9.037L-14.213,-9.037C-17.483,-9.823 -19.996,-10.566 -21.751,-11.262C-23.508,-11.958 -24.839,-12.82 -25.748,-13.851C-26.656,-14.879 -27.11,-16.242 -27.11,-17.938C-27.11,-20.299 -26.202,-21.979 -24.386,-22.978C-22.569,-23.978 -20.087,-24.477 -16.938,-24.477C-13.123,-24.477 -10.187,-23.719 -8.129,-22.206C-6.07,-20.692 -5.04,-18.603 -5.04,-15.94L7.947,-15.94C7.947,-19.693 7.084,-23.008 5.359,-25.884C3.633,-28.759 0.938,-31.016 -2.724,-32.651C-6.388,-34.286 -10.975,-35.103 -16.484,-35.103C-23.69,-35.103 -29.471,-33.65 -33.83,-30.743C-38.19,-27.837 -40.37,-23.507 -40.37,-17.756C-40.37,-13.88 -39.523,-10.731 -37.827,-8.311C-36.132,-5.888 -33.801,-4.011 -30.834,-2.679C-27.868,-1.347 -23.902,-0.076 -18.936,1.135C-18.15,1.378 -17.453,1.559 -16.847,1.68C-13.276,2.588 -10.551,3.421 -8.673,4.177C-6.797,4.935 -5.389,5.889 -4.45,7.038C-3.512,8.189 -3.042,9.672 -3.042,11.489C-3.042,14.213 -4.073,16.243 -6.13,17.573C-8.189,18.906 -11.187,19.572 -15.121,19.572C-19.422,19.572 -22.841,18.633 -25.385,16.756C-27.927,14.88 -29.199,11.974 -29.199,8.037L-42.549,8.037C-42.549,15.061 -40.295,20.525 -35.784,24.431C-31.273,28.336 -24.567,30.289 -15.667,30.289C-7.372,30.289 -0.985,28.503 3.497,24.93C7.977,21.358 10.217,16.484 10.217,10.307C10.217,6.252 9.293,3.042 7.447,0.681C5.6,-1.681 3.118,-3.511 0,-4.814" style="fill:white;fill-rule:nonzero;"/>
                </g>
                <g transform="matrix(1,0,0,1,427.214215,226.952623)">
                    <path d="M0,-40.507L17.891,-40.507L17.891,11.534L30.788,11.534L30.788,-40.507L48.499,-40.507L48.499,-52.041L0,-52.041L0,-40.507Z" style="fill:white;fill-rule:nonzero;"/>
                </g>
                <g transform="matrix(1,0,0,1,502.230415,227.406823)">
                    <path d="M0,-41.415L14.532,-41.415C18.104,-41.415 20.919,-40.612 22.978,-39.009C25.036,-37.404 26.066,-35.027 26.066,-31.879C26.066,-28.851 25.052,-26.58 23.023,-25.067C20.994,-23.554 18.164,-22.797 14.532,-22.797L0,-22.797L0,-41.415ZM33.059,-17.575C37.237,-21.117 39.326,-26.006 39.326,-32.242C39.326,-36.48 38.386,-40.112 36.51,-43.141C34.633,-46.167 31.908,-48.484 28.336,-50.089C24.763,-51.693 20.495,-52.495 15.531,-52.495L-12.897,-52.495L-12.897,11.08L0,11.08L0,-12.261L11.619,-12.261L25.521,11.08L40.234,11.08L25.274,-13.521C28.307,-14.405 30.908,-15.751 33.059,-17.575" style="fill:white;fill-rule:nonzero;"/>
                </g>
                <g transform="matrix(1,0,0,1,596.866215,202.793323)">
                    <path d="M0,8.719C0,12.111 -0.424,15.032 -1.272,17.484C-2.12,19.936 -3.558,21.859 -5.586,23.251C-7.615,24.644 -10.385,25.339 -13.896,25.339C-17.408,25.339 -20.178,24.644 -22.206,23.251C-24.236,21.859 -25.673,19.936 -26.52,17.484C-27.369,15.032 -27.792,12.111 -27.792,8.719L-27.792,-27.882L-40.688,-27.882L-40.688,9.355C-40.688,14.684 -39.871,19.345 -38.236,23.342C-36.601,27.337 -33.801,30.548 -29.835,32.968C-25.87,35.391 -20.557,36.601 -13.896,36.601C-7.236,36.601 -1.923,35.391 2.043,32.968C6.008,30.548 8.81,27.337 10.444,23.342C12.079,19.345 12.896,14.684 12.896,9.355L12.896,-27.882L0,-27.882L0,8.719Z" style="fill:white;fill-rule:nonzero;"/>
                </g>
                <g transform="matrix(1,0,0,1,622.022215,226.952623)">
                    <path d="M0,-40.507L17.891,-40.507L17.891,11.534L30.788,11.534L30.788,-40.507L48.499,-40.507L48.499,-52.041L0,-52.041L0,-40.507Z" style="fill:white;fill-rule:nonzero;"/>
                </g>
                <g transform="matrix(1,0,0,1,729.100215,195.346423)">
                    <path d="M0,22.705C-1.575,25.854 -3.814,28.231 -6.721,29.834C-9.626,31.44 -13.139,32.241 -17.255,32.241C-21.313,32.241 -24.839,31.424 -27.837,29.789C-30.833,28.154 -33.135,25.779 -34.739,22.66C-36.344,19.542 -37.146,15.803 -37.146,11.443C-37.146,7.084 -36.344,3.315 -34.739,0.136C-33.135,-3.043 -30.833,-5.45 -27.837,-7.084C-24.839,-8.719 -21.313,-9.536 -17.255,-9.536C-13.139,-9.536 -9.626,-8.719 -6.721,-7.084C-3.814,-5.45 -1.575,-3.043 0,0.136C1.574,3.315 2.362,7.084 2.362,11.443C2.362,15.803 1.574,19.558 0,22.705M0.136,-17.211C-4.799,-19.965 -10.596,-21.343 -17.255,-21.343C-23.856,-21.343 -29.653,-19.965 -34.648,-17.211C-39.644,-14.455 -43.503,-10.611 -46.228,-5.676C-48.953,-0.741 -50.315,4.904 -50.315,11.262C-50.315,17.68 -48.953,23.357 -46.228,28.291C-43.503,33.226 -39.644,37.086 -34.648,39.87C-29.653,42.656 -23.856,44.048 -17.255,44.048C-10.596,44.048 -4.799,42.672 0.136,39.916C5.07,37.161 8.87,33.301 11.535,28.336C14.198,23.372 15.531,17.68 15.531,11.262C15.531,4.904 14.198,-0.741 11.535,-5.676C8.87,-10.611 5.07,-14.455 0.136,-17.211" style="fill:white;fill-rule:nonzero;"/>
                </g>
                <g transform="matrix(1,0,0,1,772.512115,227.406823)">
                    <path d="M0,-41.415L14.532,-41.415C18.104,-41.415 20.919,-40.612 22.978,-39.009C25.036,-37.404 26.066,-35.027 26.066,-31.879C26.066,-28.851 25.052,-26.58 23.023,-25.067C20.994,-23.554 18.164,-22.797 14.532,-22.797L0,-22.797L0,-41.415ZM33.059,-17.575C37.237,-21.117 39.326,-26.006 39.326,-32.242C39.326,-36.48 38.386,-40.112 36.51,-43.141C34.633,-46.167 31.908,-48.484 28.336,-50.089C24.763,-51.693 20.495,-52.495 15.531,-52.495L-12.897,-52.495L-12.897,11.08L0,11.08L0,-12.261L11.619,-12.261L25.521,11.08L40.234,11.08L25.274,-13.521C28.307,-14.405 30.908,-15.751 33.059,-17.575" style="fill:white;fill-rule:nonzero;"/>
                </g>
                <g transform="matrix(1,0,0,1,839.988215,199.160723)">
                    <path d="M0,14.259L9.177,-12.987L18.307,14.259L0,14.259ZM26.706,39.326L40.238,39.326L19.984,-16.348C19.136,-18.709 18.198,-20.51 17.169,-21.752C16.139,-22.992 15.004,-23.854 13.763,-24.34C12.522,-24.824 10.993,-25.067 9.177,-25.067C7.299,-25.067 5.74,-24.824 4.5,-24.34C3.258,-23.854 2.123,-22.992 1.094,-21.752C0.063,-20.51 -0.874,-18.709 -1.722,-16.348L-22.065,39.326L-8.442,39.326L-3.701,25.248L21.989,25.248L26.706,39.326Z" style="fill:white;fill-rule:nonzero;"/>
                </g>
            </g>
        </g>
    </g>
</svg>
